<svg xmlns="http://www.w3.org/2000/svg" viewBox="0 0 1600 900" width="1600" height="900" role="img" aria-label="Abstract component library sheet">
<defs><linearGradient id="dsbg" x1="0" y1="0" x2="1" y2="1"><stop offset="0" stop-color="#0d0d1c"/><stop offset="1" stop-color="#08080f"/></linearGradient>
<pattern id="dsgrid" width="64" height="64" patternUnits="userSpaceOnUse"><path d="M64 0H0V64" fill="none" stroke="#b4a0ff" stroke-opacity="0.07" stroke-width="1"/></pattern>
<linearGradient id="dsacc" x1="0" y1="0" x2="1" y2="1"><stop offset="0" stop-color="#b4a0ff"/><stop offset="1" stop-color="#8f75f5"/></linearGradient>
<linearGradient id="dscy" x1="0" y1="0" x2="1" y2="0"><stop offset="0" stop-color="#8f75f5"/><stop offset="1" stop-color="#7cd4f4"/></linearGradient>
<filter id="dsblur"><feGaussianBlur stdDeviation="24"/></filter><radialGradient id="dsb0"><stop offset="0" stop-color="#8f75f5" stop-opacity="0.5"/><stop offset="1" stop-color="#8f75f5" stop-opacity="0"/></radialGradient><radialGradient id="dsb1"><stop offset="0" stop-color="#7cd4f4" stop-opacity="0.3"/><stop offset="1" stop-color="#7cd4f4" stop-opacity="0"/></radialGradient></defs>
<rect width="1600" height="900" fill="url(#dsbg)"/><rect width="1600" height="900" fill="url(#dsgrid)"/><circle cx="200" cy="150" r="460" fill="url(#dsb0)"/><circle cx="1450" cy="800" r="380" fill="url(#dsb1)"/><rect x="120" y="100" width="1360" height="700" rx="24" fill="#12121f" fill-opacity="0.8" stroke="#b4a0ff" stroke-opacity="0.2"/><rect x="180" y="160" width="190" height="56" rx="28" fill="url(#dsacc)"/><rect x="390" y="160" width="190" height="56" rx="28" fill="none" stroke="#b4a0ff" stroke-width="2" stroke-opacity="0.7"/><rect x="600" y="160" width="190" height="56" rx="28" fill="#b4a0ff" fill-opacity="0.1"/><rect x="180" y="260" width="72" height="38" rx="19" fill="#b4a0ff" fill-opacity="0.18"/><circle cx="199" cy="279" r="14" fill="#f4f0ff"/><rect x="280" y="260" width="72" height="38" rx="19" fill="#b4a0ff" fill-opacity="0.6"/><circle cx="333" cy="279" r="14" fill="#f4f0ff"/><rect x="380" y="260" width="72" height="38" rx="19" fill="#b4a0ff" fill-opacity="0.18"/><circle cx="399" cy="279" r="14" fill="#f4f0ff"/><rect x="180" y="340" width="440" height="56" rx="12" fill="#08080f" stroke="#7cd4f4" stroke-opacity="0.6" stroke-width="2"/><rect x="204" y="364" width="160" height="10" rx="5" fill="#b4a0ff" fill-opacity="0.4"/><rect x="180" y="420" width="440" height="56" rx="12" fill="#08080f" stroke="#b4a0ff" stroke-opacity="0.25"/><rect x="204" y="444" width="100" height="10" rx="5" fill="#b4a0ff" fill-opacity="0.2"/><rect x="180" y="530" width="62" height="62" rx="16" fill="#b4a0ff"/><rect x="254" y="530" width="62" height="62" rx="16" fill="#8f75f5"/><rect x="328" y="530" width="62" height="62" rx="16" fill="#7cd4f4"/><rect x="402" y="530" width="62" height="62" rx="16" fill="#5b45c8"/><rect x="476" y="530" width="62" height="62" rx="16" fill="#2c2560"/><rect x="550" y="530" width="62" height="62" rx="16" fill="#14142a"/><rect x="180" y="630" width="440" height="12" rx="6" fill="#b4a0ff" fill-opacity="0.35"/><rect x="180" y="660" width="380" height="12" rx="6" fill="#b4a0ff" fill-opacity="0.3"/><rect x="180" y="690" width="320" height="12" rx="6" fill="#b4a0ff" fill-opacity="0.24999999999999997"/><rect x="180" y="720" width="260" height="12" rx="6" fill="#b4a0ff" fill-opacity="0.19999999999999996"/><rect x="180" y="750" width="200" height="12" rx="6" fill="#b4a0ff" fill-opacity="0.14999999999999997"/><rect x="700" y="160" width="340" height="280" rx="18" fill="#b4a0ff" fill-opacity="0.05" stroke="#b4a0ff" stroke-opacity="0.18"/><rect x="720" y="180" width="300" height="120" rx="10" fill="url(#dsacc)" fill-opacity="0.35"/><rect x="720" y="328" width="200" height="12" rx="6" fill="#b4a0ff" fill-opacity="0.25"/><rect x="720" y="356" width="260" height="10" rx="6" fill="#b4a0ff" fill-opacity="0.18"/><rect x="720" y="384" width="120" height="32" rx="16" fill="#7cd4f4" fill-opacity="0.5"/><rect x="1080" y="160" width="340" height="280" rx="18" fill="#b4a0ff" fill-opacity="0.05" stroke="#b4a0ff" stroke-opacity="0.18"/><rect x="1100" y="180" width="300" height="120" rx="10" fill="url(#dscy)" fill-opacity="0.35"/><rect x="1100" y="328" width="200" height="12" rx="6" fill="#b4a0ff" fill-opacity="0.25"/><rect x="1100" y="356" width="260" height="10" rx="6" fill="#b4a0ff" fill-opacity="0.18"/><rect x="1100" y="384" width="120" height="32" rx="16" fill="#7cd4f4" fill-opacity="0.5"/><rect x="700" y="480" width="340" height="280" rx="18" fill="#b4a0ff" fill-opacity="0.05" stroke="#b4a0ff" stroke-opacity="0.18"/><rect x="720" y="500" width="300" height="120" rx="10" fill="url(#dsacc)" fill-opacity="0.35"/><rect x="720" y="648" width="200" height="12" rx="6" fill="#b4a0ff" fill-opacity="0.25"/><rect x="720" y="676" width="260" height="10" rx="6" fill="#b4a0ff" fill-opacity="0.18"/><rect x="720" y="704" width="120" height="32" rx="16" fill="#7cd4f4" fill-opacity="0.5"/><rect x="1080" y="480" width="340" height="280" rx="18" fill="#b4a0ff" fill-opacity="0.05" stroke="#b4a0ff" stroke-opacity="0.18"/><rect x="1100" y="500" width="300" height="120" rx="10" fill="url(#dscy)" fill-opacity="0.35"/><rect x="1100" y="648" width="200" height="12" rx="6" fill="#b4a0ff" fill-opacity="0.25"/><rect x="1100" y="676" width="260" height="10" rx="6" fill="#b4a0ff" fill-opacity="0.18"/><rect x="1100" y="704" width="120" height="32" rx="16" fill="#7cd4f4" fill-opacity="0.5"/>
</svg>
